<mxfile host="app.diagrams.net" agent="Mozilla/5.0 (Macintosh; Intel Mac OS X 10_15_7) AppleWebKit/537.36 (KHTML, like Gecko) Chrome/137.0.0.0 Safari/537.36" version="27.1.4">
  <diagram name="Page-1" id="BfsHDE8gc0DxDLzUPSbK">
    <mxGraphModel dx="1234" dy="790" grid="0" gridSize="10" guides="1" tooltips="1" connect="1" arrows="1" fold="1" page="1" pageScale="1" pageWidth="850" pageHeight="1100" math="0" shadow="0">
      <root>
        <mxCell id="0" />
        <mxCell id="1" parent="0" />
        <mxCell id="lzVRh_Zbf-I3hD8TVxQX-1" value="&lt;p data-pm-slice=&quot;0 0 []&quot; dir=&quot;auto&quot;&gt;&lt;br&gt;&lt;/p&gt;" style="rounded=1;whiteSpace=wrap;html=1;align=left;fillColor=#fff2cc;strokeColor=#d6b656;" vertex="1" parent="1">
          <mxGeometry x="87" y="416" width="635" height="381" as="geometry" />
        </mxCell>
        <mxCell id="lzVRh_Zbf-I3hD8TVxQX-18" value="" style="rounded=0;whiteSpace=wrap;html=1;strokeWidth=2;strokeColor=#FF9999;" vertex="1" parent="1">
          <mxGeometry x="321" y="663" width="175" height="48" as="geometry" />
        </mxCell>
        <mxCell id="lzVRh_Zbf-I3hD8TVxQX-13" value="" style="rounded=0;whiteSpace=wrap;html=1;strokeWidth=2;strokeColor=#00CC00;" vertex="1" parent="1">
          <mxGeometry x="321" y="602" width="175" height="48" as="geometry" />
        </mxCell>
        <mxCell id="lzVRh_Zbf-I3hD8TVxQX-9" value="" style="rounded=0;whiteSpace=wrap;html=1;strokeColor=#007FFF;strokeWidth=2;" vertex="1" parent="1">
          <mxGeometry x="321" y="443" width="373" height="150" as="geometry" />
        </mxCell>
        <mxCell id="lzVRh_Zbf-I3hD8TVxQX-2" value="&lt;p style=&quot;&quot; data-pm-slice=&quot;0 0 []&quot; dir=&quot;auto&quot;&gt;&lt;font face=&quot;Times New Roman&quot; style=&quot;font-size: 16px;&quot;&gt;You are an assistant for question-answering tasks. Use the following pieces of retrieved context to answer the question.&lt;/font&gt;&lt;/p&gt;&lt;p style=&quot;&quot; dir=&quot;auto&quot;&gt;&lt;font face=&quot;Times New Roman&quot; style=&quot;font-size: 16px;&quot;&gt;If you don&#39;t know the answer, just say that you don&#39;t know. Use three sentences maximum and keep the answer concise.&lt;/font&gt;&lt;/p&gt;&lt;p style=&quot;&quot; dir=&quot;auto&quot;&gt;&lt;br&gt;&lt;/p&gt;" style="text;html=1;align=left;verticalAlign=middle;whiteSpace=wrap;rounded=0;" vertex="1" parent="1">
          <mxGeometry x="334" y="476" width="354.5" height="111" as="geometry" />
        </mxCell>
        <mxCell id="lzVRh_Zbf-I3hD8TVxQX-11" style="edgeStyle=orthogonalEdgeStyle;rounded=0;orthogonalLoop=1;jettySize=auto;html=1;exitX=1;exitY=0.5;exitDx=0;exitDy=0;strokeWidth=2;strokeColor=#007FFF;" edge="1" parent="1" source="lzVRh_Zbf-I3hD8TVxQX-3">
          <mxGeometry relative="1" as="geometry">
            <mxPoint x="318" y="529" as="targetPoint" />
          </mxGeometry>
        </mxCell>
        <mxCell id="lzVRh_Zbf-I3hD8TVxQX-3" value="&lt;font style=&quot;font-size: 24px; color: rgb(0, 127, 255);&quot;&gt;提示词&lt;/font&gt;" style="text;html=1;align=left;verticalAlign=middle;whiteSpace=wrap;rounded=0;" vertex="1" parent="1">
          <mxGeometry x="174" y="503" width="76" height="51.5" as="geometry" />
        </mxCell>
        <mxCell id="lzVRh_Zbf-I3hD8TVxQX-14" style="edgeStyle=orthogonalEdgeStyle;rounded=0;orthogonalLoop=1;jettySize=auto;html=1;exitX=1;exitY=0.5;exitDx=0;exitDy=0;entryX=0;entryY=0.5;entryDx=0;entryDy=0;strokeWidth=2;strokeColor=#00CC00;" edge="1" parent="1" source="lzVRh_Zbf-I3hD8TVxQX-4" target="lzVRh_Zbf-I3hD8TVxQX-13">
          <mxGeometry relative="1" as="geometry" />
        </mxCell>
        <mxCell id="lzVRh_Zbf-I3hD8TVxQX-4" value="&lt;font style=&quot;font-size: 24px; color: rgb(0, 204, 0);&quot;&gt;问题占位符&lt;/font&gt;" style="text;html=1;align=left;verticalAlign=middle;whiteSpace=wrap;rounded=0;" vertex="1" parent="1">
          <mxGeometry x="124" y="611" width="126" height="30" as="geometry" />
        </mxCell>
        <mxCell id="lzVRh_Zbf-I3hD8TVxQX-12" value="&lt;p data-pm-slice=&quot;1 1 []&quot; dir=&quot;auto&quot;&gt;&lt;font face=&quot;Times New Roman&quot; style=&quot;font-size: 16px;&quot;&gt;Question: {question}&amp;nbsp;&lt;/font&gt;&lt;/p&gt;" style="text;html=1;align=center;verticalAlign=middle;whiteSpace=wrap;rounded=0;" vertex="1" parent="1">
          <mxGeometry x="335" y="610" width="153" height="32" as="geometry" />
        </mxCell>
        <mxCell id="lzVRh_Zbf-I3hD8TVxQX-28" style="edgeStyle=orthogonalEdgeStyle;rounded=0;orthogonalLoop=1;jettySize=auto;html=1;exitX=1;exitY=0.5;exitDx=0;exitDy=0;entryX=0;entryY=0.5;entryDx=0;entryDy=0;strokeWidth=2;strokeColor=#FF9999;" edge="1" parent="1" source="lzVRh_Zbf-I3hD8TVxQX-16" target="lzVRh_Zbf-I3hD8TVxQX-18">
          <mxGeometry relative="1" as="geometry" />
        </mxCell>
        <mxCell id="lzVRh_Zbf-I3hD8TVxQX-16" value="&lt;font style=&quot;font-size: 24px; color: rgb(255, 153, 153);&quot;&gt;上下文占位符&lt;/font&gt;" style="text;html=1;align=left;verticalAlign=middle;whiteSpace=wrap;rounded=0;" vertex="1" parent="1">
          <mxGeometry x="95" y="672" width="151" height="30" as="geometry" />
        </mxCell>
        <mxCell id="lzVRh_Zbf-I3hD8TVxQX-17" value="&lt;p data-pm-slice=&quot;1 1 []&quot; dir=&quot;auto&quot;&gt;&lt;span style=&quot;font-size: 16px;&quot;&gt;&lt;font face=&quot;Times New Roman&quot;&gt;Context: {context}&amp;nbsp;&lt;/font&gt;&lt;/span&gt;&lt;/p&gt;" style="text;html=1;align=center;verticalAlign=middle;whiteSpace=wrap;rounded=0;" vertex="1" parent="1">
          <mxGeometry x="327" y="671" width="153" height="32" as="geometry" />
        </mxCell>
        <mxCell id="lzVRh_Zbf-I3hD8TVxQX-19" value="" style="rounded=0;whiteSpace=wrap;html=1;strokeWidth=2;strokeColor=#A680B8;" vertex="1" parent="1">
          <mxGeometry x="321" y="730" width="83" height="48" as="geometry" />
        </mxCell>
        <mxCell id="lzVRh_Zbf-I3hD8TVxQX-27" style="edgeStyle=orthogonalEdgeStyle;rounded=0;orthogonalLoop=1;jettySize=auto;html=1;exitX=1;exitY=0.5;exitDx=0;exitDy=0;strokeWidth=2;strokeColor=#A680B8;" edge="1" parent="1" source="lzVRh_Zbf-I3hD8TVxQX-21">
          <mxGeometry relative="1" as="geometry">
            <mxPoint x="319.5" y="755" as="targetPoint" />
          </mxGeometry>
        </mxCell>
        <mxCell id="lzVRh_Zbf-I3hD8TVxQX-21" value="&lt;font style=&quot;color: rgb(166, 128, 184);&quot;&gt;&lt;span style=&quot;font-size: 24px;&quot;&gt;输出提示&lt;/span&gt;&lt;/font&gt;" style="text;html=1;align=left;verticalAlign=middle;whiteSpace=wrap;rounded=0;" vertex="1" parent="1">
          <mxGeometry x="145" y="740" width="105" height="30" as="geometry" />
        </mxCell>
        <mxCell id="lzVRh_Zbf-I3hD8TVxQX-22" value="&lt;p data-pm-slice=&quot;1 1 []&quot; dir=&quot;auto&quot;&gt;&lt;font face=&quot;Times New Roman&quot; style=&quot;font-size: 16px;&quot;&gt;Answer:&lt;/font&gt;&lt;/p&gt;" style="text;html=1;align=center;verticalAlign=middle;whiteSpace=wrap;rounded=0;" vertex="1" parent="1">
          <mxGeometry x="327" y="738" width="73" height="32" as="geometry" />
        </mxCell>
      </root>
    </mxGraphModel>
  </diagram>
</mxfile>
